<svg width="800" height="800" viewBox="0 0 800 800" fill="none" xmlns="http://www.w3.org/2000/svg">
<path d="M459.477 369.637L473.504 289.199C479.074 257.252 436.514 241.015 419.39 268.554L376.274 337.894C374.874 340.145 372.248 341.32 369.637 340.865L289.199 326.839C257.252 321.268 241.015 363.828 268.554 380.952L337.894 424.069C340.145 425.468 341.32 428.094 340.865 430.705L326.839 511.144C321.268 543.091 363.828 559.328 380.952 531.789L424.069 462.449C425.468 460.198 428.094 459.022 430.705 459.477L511.144 473.504C543.091 479.074 559.328 436.514 531.789 419.39L462.449 376.274C460.198 374.874 459.022 372.248 459.477 369.637Z" stroke="#FFACAC" stroke-opacity="0.25" stroke-width="23"/>
</svg>
