<svg width="803" height="806" viewBox="0 0 803 806" fill="none" xmlns="http://www.w3.org/2000/svg">
<path d="M611.178 551.375C624.59 568.644 620.184 597.277 599.385 630.302C556.487 695.602 461.247 754.064 387.368 736.525C378.449 733.974 370.554 731.148 363.41 727.023C284.168 681.273 334.366 522.327 335.116 521.028C336.067 516.381 334.695 511.258 330.798 509.008C330.148 508.633 330.148 508.633 329.499 508.258C326.251 506.383 321.229 506.082 317.68 509.229C316.28 510.153 182.797 612.354 108.751 569.604C82.7707 554.604 66.5399 522.716 60.3337 474.966C55.299 435.686 64.0784 406.979 84.6226 389.396C141.856 342.765 273.669 385.958 275.343 386.059C279.615 387.659 284.737 386.287 287.362 381.74C290.262 378.218 289.914 372.821 287.142 368.622C252.349 326.884 220.297 233.901 250.451 168.172C270.079 126.676 309.988 105.551 370.18 104.795C394.742 104.254 414.629 108.807 430.218 117.807C520.501 169.932 451.727 364.053 450.876 367.026C447.474 378.918 462.139 386.518 469.712 377.901C513.754 327.118 641.198 202.378 706.8 240.253C721.739 248.878 733.202 265.023 741.19 288.687C752.298 321.947 749.566 350.681 732.992 374.887C676.622 457.523 480.679 463.906 477.98 464.08C472.583 464.429 467.909 469.524 467.882 475.571C467.855 481.618 472.301 485.917 477.973 486.593C481.321 486.794 524.297 487.357 567.165 512.107C584.702 522.232 599.989 536.255 611.178 551.375Z" fill="black" fill-opacity="0.03"/>
</svg>
