<svg width="800" height="800" viewBox="0 0 800 800" fill="none" xmlns="http://www.w3.org/2000/svg">
<path d="M418.583 439.958L418.799 439.833C420.44 439.175 422.147 439.632 423.114 440.806C423.58 441.114 460.881 482.221 487.295 466.971C489.677 465.596 492.025 463.663 493.906 461.422C511.282 443.018 510.404 405.998 498.703 382.731C492.853 371.098 485.322 365.053 477.976 365.83C471.53 366.665 465.276 368.833 459.214 372.333C444.924 380.583 437.074 393.486 437.074 393.486C436.059 395.227 433.86 395.919 432.119 394.904C430.378 393.888 429.686 391.69 430.702 389.949C431.01 389.482 461.574 331.421 447.456 301.467C443.105 292.432 435.391 287.071 423.722 284.859C415.559 283.221 408.988 283.84 404.225 286.59C382.358 299.215 396.785 356.703 404.104 377.881C404.763 379.521 404.089 381.354 402.573 382.229C401.058 383.104 399.134 382.771 398.042 381.381C397.576 381.073 352.534 328.558 322.439 345.933C317.243 348.933 312.739 354.131 308.677 361.095C298.863 378.597 298.435 393.856 307.234 406.096C321.182 425.756 353.275 432.342 371.122 429.254C372.671 428.937 374.287 429.736 375.162 431.252C375.696 432.676 375.363 434.6 374.189 435.566C373.756 435.816 339.444 466.885 343.583 491.054C345.018 500.04 351.933 507.017 363.895 512.236C379.055 518.494 390.965 519.123 399.409 514.248C424.091 499.998 416.71 444.215 416.677 443.657C416.701 442.199 417.284 440.708 418.583 439.958ZM339.755 501.924C338.005 498.893 336.813 495.828 336.27 492.389C332.891 471.535 351.331 448.475 362.072 437.078C341.916 437.168 314.437 429.073 301.33 410.37C293.998 400.17 288.245 382.707 302.304 357.558C307.074 349.319 312.536 343.279 318.814 339.654C344.362 324.904 376.319 349.755 392.948 365.558C386.327 341.09 377.001 293.936 400.6 280.311C406.879 276.686 415.215 275.625 425.086 277.721C439.02 280.357 448.725 287.167 453.984 298.275C464.002 319.627 455.026 351.079 446.654 372.078C449.435 369.895 452.341 367.929 455.589 366.054C462.517 362.054 469.762 359.603 476.983 358.61C487.551 357.415 497.848 364.749 505.107 379.322C518.058 404.754 519.478 445.215 499.355 466.359C496.732 469.317 493.951 471.5 490.92 473.25C467.104 487 438.23 464.988 424.842 452.799C427.43 497.782 413.11 540.979 361.165 519.008C350.944 514.805 343.755 508.852 339.755 501.924Z" fill="black" fill-opacity="0.05"/>
</svg>
